<?xml version="1.0" encoding="utf-8"?>
<svg xmlns="http://www.w3.org/2000/svg" width="31" height="31" viewBox="0 0 31 31" fill="none">
<path d="M15.464 0C12.4055 0 9.41569 0.904944 6.87266 2.6004C4.32964 4.29585 2.34755 6.70566 1.17713 9.52511C0.00669961 12.3445 -0.299537 15.447 0.297141 18.4401C0.893823 21.4332 2.36663 24.1825 4.52929 26.3402C6.69196 28.4982 9.44741 29.9678 12.4471 30.5633C15.4468 31.1586 18.5561 30.853 21.3818 29.6854C24.2075 28.5173 26.6224 26.5396 28.3218 24.0022C30.021 21.4648 30.9279 18.4816 30.9279 15.4298C30.9279 11.3376 29.2987 7.41294 26.3986 4.5193C23.4985 1.62564 19.5653 0 15.464 0ZM24.9631 17.6848C24.9631 17.9934 23.567 18.0375 23.567 18.3461C23.567 18.6547 24.9478 19.0735 24.9478 19.499C24.9478 20.0191 22.1024 20.0962 22.1024 20.6165C22.1024 21.172 24.2607 21 24.2607 21.6018C24.2607 22.3116 18.8395 21.9809 18.8395 22.7194C18.8395 23.0014 19.5333 23.1183 20.4015 23.211C20.8786 23.2638 20.7747 23.4974 20.5031 23.6519C18.9854 24.5757 17.2419 25.0647 15.464 25.0647C13.6861 25.0647 11.9426 24.5757 10.4249 23.6519C10.1554 23.4865 10.0494 23.2529 10.5265 23.211C11.3947 23.1183 12.0906 22.9905 12.0906 22.7194C12.0906 21.9809 6.66716 22.3116 6.66716 21.6018C6.66716 21 8.82773 21.1609 8.82773 20.6165C8.82773 20.0962 5.98017 20.0191 5.98017 19.499C5.98017 19.0735 7.3631 18.6613 7.3631 18.3461C7.3631 18.0309 5.96469 17.9956 5.96469 17.6848C5.96469 17.374 6.98533 17.1734 6.98533 16.953C6.98533 16.5364 5.79899 17.2947 5.79899 15.4298C5.79899 12.8722 6.81731 10.4193 8.62983 8.61077C10.4424 6.80222 12.9007 5.78619 15.464 5.78619C18.0273 5.78619 20.4856 6.80222 22.2982 8.61077C24.1107 10.4193 25.1289 12.8722 25.1289 15.4298C25.1289 17.2947 23.9427 16.532 23.9427 16.953C23.9427 17.1734 24.9631 17.352 24.9631 17.6848Z" fill="#4F46E5"/>
</svg>